<svg xmlns="http://www.w3.org/2000/svg" xmlns:xlink="http://www.w3.org/1999/xlink" width="500" zoomAndPan="magnify" viewBox="0 0 375 374.999991" height="500" preserveAspectRatio="xMidYMid meet" version="1.0"><defs><g/></defs><rect x="-37.5" width="450" fill="#ffffff" y="-37.499999" height="449.999989" fill-opacity="1"/><rect x="-37.5" width="450" fill="#ffffff" y="-37.499999" height="449.999989" fill-opacity="1"/><g fill="#ce0000" fill-opacity="1"><g transform="translate(39.707702, 297.216056)"><g><path d="M 70.703125 -76.640625 C 71.742188 -81.023438 73.304688 -87.488281 75.390625 -96.03125 C 77.472656 -104.375 79.035156 -110.632812 80.078125 -114.8125 C 83.421875 -128.15625 88.425781 -148.382812 95.09375 -175.5 C 101.5625 -202.394531 106.460938 -222.625 109.796875 -236.1875 C 111.046875 -241.1875 112.09375 -244 112.9375 -244.625 C 113.5625 -245.039062 116.375 -245.351562 121.375 -245.5625 C 138.269531 -245.78125 163.609375 -246.203125 197.390625 -246.828125 C 231.179688 -247.242188 256.625 -247.660156 273.71875 -248.078125 L 315.015625 -249.015625 L 320.65625 -249.015625 C 322.53125 -249.015625 323.675781 -247.757812 324.09375 -245.25 C 324.300781 -244.207031 324.40625 -242.75 324.40625 -240.875 C 324.40625 -240.039062 324.507812 -236.492188 324.71875 -230.234375 C 324.71875 -223.984375 324.40625 -220.546875 323.78125 -219.921875 C 322.113281 -219.085938 320.335938 -218.566406 318.453125 -218.359375 C 316.578125 -217.941406 315.015625 -217.734375 313.765625 -217.734375 C 312.304688 -217.734375 310.429688 -217.835938 308.140625 -218.046875 C 305.835938 -218.046875 304.164062 -218.046875 303.125 -218.046875 C 238.894531 -216.796875 190.722656 -215.957031 158.609375 -215.53125 C 156.929688 -215.320312 154.425781 -215.21875 151.09375 -215.21875 C 147.550781 -215.21875 144.945312 -215.113281 143.28125 -214.90625 C 140.976562 -214.695312 139.410156 -214.488281 138.578125 -214.28125 C 137.742188 -214.070312 137.117188 -213.550781 136.703125 -212.71875 C 136.078125 -211.882812 135.453125 -210.320312 134.828125 -208.03125 C 134.617188 -207.195312 134.304688 -205.738281 133.890625 -203.65625 C 133.265625 -201.351562 132.847656 -199.578125 132.640625 -198.328125 C 124.085938 -163.710938 111.257812 -111.578125 94.15625 -41.921875 C 93.738281 -38.367188 93.320312 -35.863281 92.90625 -34.40625 C 92.28125 -32.113281 93.007812 -30.863281 95.09375 -30.65625 C 96.132812 -30.445312 97.597656 -30.34375 99.484375 -30.34375 C 101.773438 -30.132812 102.921875 -28.78125 102.921875 -26.28125 C 102.921875 -21.269531 102.710938 -13.550781 102.296875 -3.125 C 102.296875 -0.625 101.148438 0.625 98.859375 0.625 L 91.34375 0.625 C 79.039062 0.207031 60.789062 -0.414062 36.59375 -1.25 C 34.507812 -1.25 33.050781 -1.351562 32.21875 -1.5625 C 30.132812 -1.5625 29.09375 -2.5 29.09375 -4.375 C 29.300781 -7.09375 29.40625 -11.160156 29.40625 -16.578125 C 29.40625 -22.003906 29.507812 -26.070312 29.71875 -28.78125 C 29.71875 -30.445312 30.65625 -31.488281 32.53125 -31.90625 C 33.78125 -32.113281 35.660156 -32.21875 38.171875 -32.21875 C 41.503906 -32.007812 43.585938 -32.425781 44.421875 -33.46875 C 45.046875 -34.507812 44.941406 -36.597656 44.109375 -39.734375 C 38.472656 -69.554688 30.753906 -108.34375 20.953125 -156.09375 C 20.742188 -157.976562 20.222656 -160.691406 19.390625 -164.234375 C 18.554688 -167.566406 18.035156 -170.070312 17.828125 -171.75 C 17.410156 -174.25 15.640625 -175.8125 12.515625 -176.4375 C 12.097656 -176.644531 10.21875 -176.957031 6.875 -177.375 C 3.539062 -177.789062 1.457031 -178.832031 0.625 -180.5 C -0.414062 -180.914062 -0.414062 -183.109375 0.625 -187.078125 C 1.664062 -190.828125 2.1875 -193.015625 2.1875 -193.640625 C 2.394531 -195.304688 2.8125 -197.597656 3.4375 -200.515625 C 4.0625 -203.234375 4.375 -204.90625 4.375 -205.53125 C 5 -208.238281 6.671875 -209.28125 9.390625 -208.65625 C 26.898438 -205.738281 36.070312 -204.175781 36.90625 -203.96875 C 41.289062 -203.132812 43.898438 -200.210938 44.734375 -195.203125 L 57.875 -129.515625 C 59.957031 -119.921875 62.976562 -104.175781 66.9375 -82.28125 C 67.988281 -79.144531 69.242188 -77.265625 70.703125 -76.640625 Z M 70.703125 -76.640625 "/></g></g></g><g fill="#193046" fill-opacity="1"><g transform="translate(207.074882, 297.216056)"><g><path d="M -162.984375 47.859375 L -163.921875 43.171875 L -166.734375 8.453125 C -167.148438 5.734375 -165.898438 4.164062 -162.984375 3.75 C -160.484375 3.539062 -156.519531 3.226562 -151.09375 2.8125 C -145.882812 2.601562 -142.023438 2.394531 -139.515625 2.1875 C -137.847656 2.1875 -136.703125 3.019531 -136.078125 4.6875 L -135.765625 5 L -135.765625 5.9375 C -135.554688 6.351562 -135.453125 7.296875 -135.453125 8.765625 C -135.453125 10.222656 -135.242188 11.472656 -134.828125 12.515625 C -134.617188 13.554688 -133.992188 14.390625 -132.953125 15.015625 C -131.703125 15.640625 -128.363281 15.742188 -122.9375 15.328125 C -107.71875 14.703125 -82.796875 13.765625 -48.171875 12.515625 C -13.765625 11.265625 11.050781 10.328125 26.28125 9.703125 C 34 9.492188 45.257812 8.972656 60.0625 8.140625 C 62.769531 7.929688 64.4375 7.507812 65.0625 6.875 C 65.476562 6.457031 65.894531 5 66.3125 2.5 C 67.570312 -7.507812 68.828125 -17.207031 70.078125 -26.59375 C 70.492188 -31.382812 71.328125 -38.992188 72.578125 -49.421875 C 73.617188 -59.640625 74.453125 -67.460938 75.078125 -72.890625 C 75.492188 -75.390625 75.703125 -77.578125 75.703125 -79.453125 C 75.910156 -81.753906 75.804688 -83.320312 75.390625 -84.15625 C 74.765625 -84.988281 73.410156 -85.71875 71.328125 -86.34375 C 68.617188 -87.382812 64.757812 -88.738281 59.75 -90.40625 C 54.53125 -92.070312 51.296875 -93.113281 50.046875 -93.53125 C 35.867188 -98.539062 25.128906 -102.296875 17.828125 -104.796875 C 13.035156 -106.253906 10.328125 -107.503906 9.703125 -108.546875 C 9.078125 -109.585938 8.765625 -112.820312 8.765625 -118.25 L 8.765625 -164.546875 C 8.765625 -168.710938 8.660156 -171.738281 8.453125 -173.625 C 8.453125 -176.125 7.40625 -177.375 5.3125 -177.375 C 1.976562 -177.789062 0.3125 -179.976562 0.3125 -183.9375 L 0.3125 -205.21875 C 0.3125 -207.300781 1.457031 -208.550781 3.75 -208.96875 C 4.375 -208.96875 5.207031 -209.070312 6.25 -209.28125 C 7.09375 -209.28125 7.828125 -209.28125 8.453125 -209.28125 C 18.671875 -209.488281 34.101562 -209.90625 54.75 -210.53125 C 75.1875 -210.945312 90.515625 -211.257812 100.734375 -211.46875 C 103.441406 -211.46875 105.421875 -211.363281 106.671875 -211.15625 C 108.128906 -211.15625 109.066406 -210.21875 109.484375 -208.34375 L 109.484375 -200.515625 C 109.273438 -196.554688 108.960938 -190.613281 108.546875 -182.6875 C 108.128906 -174.550781 107.816406 -168.398438 107.609375 -164.234375 C 107.191406 -160.066406 108.863281 -157.566406 112.625 -156.734375 C 115.539062 -156.304688 116.582031 -154.84375 115.75 -152.34375 C 115.125 -147.757812 113.660156 -139.941406 111.359375 -128.890625 C 110.734375 -126.585938 109.273438 -125.644531 106.984375 -126.0625 C 89.878906 -129.613281 80.703125 -131.492188 79.453125 -131.703125 C 76.535156 -132.328125 75.078125 -134.203125 75.078125 -137.328125 C 75.285156 -140.671875 75.597656 -145.78125 76.015625 -152.65625 C 76.222656 -159.539062 76.429688 -164.648438 76.640625 -167.984375 C 77.054688 -174.035156 76.847656 -177.582031 76.015625 -178.625 C 75.179688 -179.457031 71.738281 -179.769531 65.6875 -179.5625 C 63.394531 -179.5625 60.0625 -179.5625 55.6875 -179.5625 C 51.09375 -179.351562 47.648438 -179.144531 45.359375 -178.9375 C 41.816406 -178.9375 40.046875 -177.375 40.046875 -174.25 L 40.046875 -133.890625 C 40.046875 -131.597656 41.085938 -130.140625 43.171875 -129.515625 C 43.796875 -129.304688 44.835938 -128.890625 46.296875 -128.265625 C 47.753906 -127.640625 48.796875 -127.222656 49.421875 -127.015625 C 67.566406 -121.171875 85.710938 -114.910156 103.859375 -108.234375 C 106.984375 -107.191406 108.859375 -106.253906 109.484375 -105.421875 C 109.898438 -104.585938 109.898438 -102.609375 109.484375 -99.484375 L 103.859375 -47.859375 C 100.109375 -14.910156 97.394531 9.800781 95.71875 26.28125 C 95.71875 26.90625 95.613281 27.84375 95.40625 29.09375 C 95.195312 30.34375 95.09375 31.28125 95.09375 31.90625 C 94.675781 34.613281 94.050781 36.28125 93.21875 36.90625 C 92.382812 37.539062 90.507812 37.960938 87.59375 38.171875 C 83.207031 38.796875 79.035156 39.109375 75.078125 39.109375 C 60.484375 39.734375 38.691406 40.566406 9.703125 41.609375 C -19.492188 42.859375 -41.289062 43.796875 -55.6875 44.421875 C -63.40625 44.835938 -92.394531 45.984375 -142.65625 47.859375 C -154.125 48.273438 -160.898438 48.273438 -162.984375 47.859375 Z M -162.984375 47.859375 "/></g></g></g></svg>